# xmcd CD database file
#
# Track frame offsets:
#	150
#	15140
#	32405
#	45815
#	61150
#	72967
#	89815
#	103405
#	120537
#	137060
#	154005
#	167332
#	195342
#
# Disc length: 4440 seconds
#
# Revision: 0
# Processed by: cddbd v1.4PL0 Copyright (c) Steve Scherf et al.
# Submitted via: CDex 1.51
#
DISCID=9811560d
DTITLE=Chris LeDoux - Horsepower
DYEAR=2003
DGENRE=Country
TTITLE0=Horsepower
TTITLE1=One Less Tornado
TTITLE2=All Wound Up
TTITLE3=A Cowboy Was Born
TTITLE4=Smack Dab In The Middle
TTITLE5=The Buffalo Grass
TTITLE6=Feels Like I'm Getting Into Something Good
TTITLE7=The Ride
TTITLE8=Rodeo Moon
TTITLE9=Between The Rainbow and The Rain
TTITLE10=Pass My Hat
TTITLE11=Blue Bonnet Blues
TTITLE12=Data
EXTD=YEAR: 2003
EXTT0=
EXTT1=
EXTT2=
EXTT3=
EXTT4=
EXTT5=
EXTT6=
EXTT7=
EXTT8=
EXTT9=
EXTT10=
EXTT11=
EXTT12=
PLAYORDER=
